# xmcd
#
# Track frame offsets: 
#        150
#        26714
#        49589
#        70165
#        91838
#        116058
#        140738
#        163809
#        187631
#        209008
#        232353
#        254891
#        273720
#        296951
#        320490
#
# Disc length: 4548 seconds
#
# Revision: 2
# Processed by: cddbd v1.4PL0 Copyright (c) Steve Scherf et al.
# Submitted via: ExactAudioCopy v0.90b4
#
DISCID=f711c20f
DTITLE=Various Artist - Club Saturn
DYEAR=1996
DGENRE=
TTITLE0=Expressive Records - Nights (Drum and Bass Mix)
TTITLE1=Duderella - Daytona Racing (House Mix)
TTITLE2=Remarc - Virtua Cop (Jungle Mix)
TTITLE3=Balouga Boys - Sonic 3D (House Mix)
TTITLE4=Kenny Ken - Athlete Kings (Jungle Mix)
TTITLE5=D'Cruise - Sega Rally (Trip Hop Mix)
TTITLE6=Dream Team - Baku Baku (Drum and Bass Mix)
TTITLE7=Marshall Jefferson - Virtua Fighter (House Mix)
TTITLE8=Back2Basics Recordings - Fighting Vipers (Drum and Bass Mix)
TTITLE9=Richard Jacques - Nights (Ambient Trance Mix)
TTITLE10=Mr. Time - Golden Axe Duel (Jungle Mix)
TTITLE11=Richard Jacques - Worldwide Soccer (Trip Hop Mix)
TTITLE12=Remarc and Lewi - Shinobi X (Jungle Mix)
TTITLE13=Acorn Arts - Baku Baku (Hard House Mix)
TTITLE14=Paul Anderson - Fighting Vipers (Avant Garde Beats Mix)
EXTD=
EXTT0=
EXTT1=
EXTT2=
EXTT3=
EXTT4=
EXTT5=
EXTT6=
EXTT7=
EXTT8=
EXTT9=
EXTT10=
EXTT11=
EXTT12=
EXTT13=
EXTT14=
PLAYORDER=
